<svg xmlns="http://www.w3.org/2000/svg" width="58" height="58" fill="none" viewBox="0 0 32 32"><rect width="32" height="32" fill="#0070FF" rx="4"/><path fill="#fff" d="M13.5 7.25c0-.691.559-1.25 1.25-1.25C20.965 6 26 11.035 26 17.25c0 .691-.559 1.25-1.25 1.25s-1.25-.559-1.25-1.25a8.75 8.75 0 0 0-8.75-8.75c-.691 0-1.25-.559-1.25-1.25Zm-5.133 7.367 4.067 4.067 1.109-1.11A1.249 1.249 0 0 1 14.75 16c.691 0 1.25.559 1.25 1.25a1.249 1.249 0 0 1-1.574 1.207l-1.11 1.11 4.067 4.066c.566.566.46 1.515-.285 1.808a8.158 8.158 0 0 1-2.973.559 8.124 8.124 0 0 1-7.563-11.098c.293-.742 1.243-.851 1.81-.285h-.005ZM14.75 9.75c4.14 0 7.5 3.36 7.5 7.5 0 .691-.559 1.25-1.25 1.25s-1.25-.559-1.25-1.25a5 5 0 0 0-5-5c-.691 0-1.25-.559-1.25-1.25s.559-1.25 1.25-1.25Z"/></svg>
